<?xml version="1.0" encoding="UTF-8" standalone="no"?>
<!-- Created with Inkscape (http://www.inkscape.org/) -->

<svg
   version="1.1"
   id="svg1"
   width="340"
   height="386.66666"
   viewBox="0 0 340 386.66666"
   sodipodi:docname="Pipeline.svg"
   inkscape:version="1.4.2 (1:1.4.2+202505120738+ebf0e940d0)"
   xmlns:inkscape="http://www.inkscape.org/namespaces/inkscape"
   xmlns:sodipodi="http://sodipodi.sourceforge.net/DTD/sodipodi-0.dtd"
   xmlns="http://www.w3.org/2000/svg"
   xmlns:svg="http://www.w3.org/2000/svg">
  <defs
     id="defs1">
    <clipPath
       clipPathUnits="userSpaceOnUse"
       id="clipPath1">
      <path
         d="M 0,0 H 255 V 290 H 0 Z"
         id="path1" />
    </clipPath>
    <clipPath
       clipPathUnits="userSpaceOnUse"
       id="clipPath3">
      <path
         d="M 0,0 H 255 V 290 H 0 Z"
         id="path3" />
    </clipPath>
    <clipPath
       clipPathUnits="userSpaceOnUse"
       id="clipPath5">
      <path
         d="M 0,0 H 255 V 290 H 0 Z"
         transform="matrix(1,0,0,0.99771006,-161.96311,-17.680309)"
         id="path5" />
    </clipPath>
    <clipPath
       clipPathUnits="userSpaceOnUse"
       id="clipPath6">
      <path
         d="M 0,0 H 255 V 290 H 0 Z"
         id="path6" />
    </clipPath>
    <clipPath
       clipPathUnits="userSpaceOnUse"
       id="clipPath8">
      <path
         d="M 0,0 H 255 V 290 H 0 Z"
         transform="matrix(1,0,0,0.99771006,-150.40768,-34.088012)"
         id="path8" />
    </clipPath>
    <clipPath
       clipPathUnits="userSpaceOnUse"
       id="clipPath9">
      <path
         d="M 0,0 H 255 V 290 H 0 Z"
         id="path9" />
    </clipPath>
    <clipPath
       clipPathUnits="userSpaceOnUse"
       id="clipPath11">
      <path
         d="M 0,0 H 255 V 290 H 0 Z"
         transform="matrix(1,0,0,0.99771006,-66.076057,-26.242326)"
         id="path11" />
    </clipPath>
    <clipPath
       clipPathUnits="userSpaceOnUse"
       id="clipPath12">
      <path
         d="M 0,0 H 255 V 290 H 0 Z"
         id="path12" />
    </clipPath>
    <clipPath
       clipPathUnits="userSpaceOnUse"
       id="clipPath14">
      <path
         d="M 0,0 H 255 V 290 H 0 Z"
         id="path14" />
    </clipPath>
    <clipPath
       clipPathUnits="userSpaceOnUse"
       id="clipPath16">
      <path
         d="M 0,0 H 255 V 290 H 0 Z"
         transform="matrix(1,0,0,0.99771006,-137.2515,-77.158249)"
         id="path16" />
    </clipPath>
    <clipPath
       clipPathUnits="userSpaceOnUse"
       id="clipPath17">
      <path
         d="M 0,0 H 255 V 290 H 0 Z"
         id="path17" />
    </clipPath>
    <clipPath
       clipPathUnits="userSpaceOnUse"
       id="clipPath19">
      <path
         d="M 0,0 H 255 V 290 H 0 Z"
         transform="matrix(1,0,0,0.99771006,-75.972707,-77.508415)"
         id="path19" />
    </clipPath>
    <clipPath
       clipPathUnits="userSpaceOnUse"
       id="clipPath20">
      <path
         d="M 0,0 H 255 V 290 H 0 Z"
         id="path20" />
    </clipPath>
    <clipPath
       clipPathUnits="userSpaceOnUse"
       id="clipPath22">
      <path
         d="M 0,0 H 255 V 290 H 0 Z"
         transform="matrix(1,0,0,0.99771006,-153.90933,-95.316776)"
         id="path22" />
    </clipPath>
    <clipPath
       clipPathUnits="userSpaceOnUse"
       id="clipPath23">
      <path
         d="M 0,0 H 255 V 290 H 0 Z"
         id="path23" />
    </clipPath>
    <clipPath
       clipPathUnits="userSpaceOnUse"
       id="clipPath25">
      <path
         d="M 0,0 H 255 V 290 H 0 Z"
         transform="matrix(1,0,0,0.99771006,-58.814647,-95.666943)"
         id="path25" />
    </clipPath>
    <clipPath
       clipPathUnits="userSpaceOnUse"
       id="clipPath26">
      <path
         d="M 0,0 H 255 V 290 H 0 Z"
         id="path26" />
    </clipPath>
    <clipPath
       clipPathUnits="userSpaceOnUse"
       id="clipPath28">
      <path
         d="M 0,0 H 255 V 290 H 0 Z"
         transform="matrix(1,0,0,0.99771006,-72.170924,-113.82548)"
         id="path28" />
    </clipPath>
    <clipPath
       clipPathUnits="userSpaceOnUse"
       id="clipPath29">
      <path
         d="M 0,0 H 255 V 290 H 0 Z"
         id="path29" />
    </clipPath>
    <clipPath
       clipPathUnits="userSpaceOnUse"
       id="clipPath31">
      <path
         d="M 0,0 H 255 V 290 H 0 Z"
         transform="matrix(1,0,0,0.99771006,-57.313942,-131.98401)"
         id="path31" />
    </clipPath>
    <clipPath
       clipPathUnits="userSpaceOnUse"
       id="clipPath32">
      <path
         d="M 0,0 H 255 V 290 H 0 Z"
         id="path32" />
    </clipPath>
    <clipPath
       clipPathUnits="userSpaceOnUse"
       id="clipPath34">
      <path
         d="M 0,0 H 255 V 290 H 0 Z"
         id="path34" />
    </clipPath>
    <clipPath
       clipPathUnits="userSpaceOnUse"
       id="clipPath36">
      <path
         d="M 0,0 H 255 V 290 H 0 Z"
         transform="matrix(1,0,0,0.99771006,-121.297,-175.75757)"
         id="path36" />
    </clipPath>
    <clipPath
       clipPathUnits="userSpaceOnUse"
       id="clipPath37">
      <path
         d="M 0,0 H 255 V 290 H 0 Z"
         id="path37" />
    </clipPath>
    <clipPath
       clipPathUnits="userSpaceOnUse"
       id="clipPath39">
      <path
         d="M 0,0 H 255 V 290 H 0 Z"
         transform="matrix(1,0,0,0.99771006,-59.665045,-175.8046)"
         id="path39" />
    </clipPath>
    <clipPath
       clipPathUnits="userSpaceOnUse"
       id="clipPath40">
      <path
         d="M 0,0 H 255 V 290 H 0 Z"
         id="path40" />
    </clipPath>
    <clipPath
       clipPathUnits="userSpaceOnUse"
       id="clipPath42">
      <path
         d="M 0,0 H 255 V 290 H 0 Z"
         transform="matrix(1,0,0,0.99771006,-116.24463,-193.0657)"
         id="path42" />
    </clipPath>
    <clipPath
       clipPathUnits="userSpaceOnUse"
       id="clipPath43">
      <path
         d="M 0,0 H 255 V 290 H 0 Z"
         id="path43" />
    </clipPath>
    <clipPath
       clipPathUnits="userSpaceOnUse"
       id="clipPath45">
      <path
         d="M 0,0 H 255 V 290 H 0 Z"
         transform="matrix(1,0,0,0.99771006,-61.265795,-193.0627)"
         id="path45" />
    </clipPath>
    <clipPath
       clipPathUnits="userSpaceOnUse"
       id="clipPath46">
      <path
         d="M 0,0 H 255 V 290 H 0 Z"
         id="path46" />
    </clipPath>
    <clipPath
       clipPathUnits="userSpaceOnUse"
       id="clipPath48">
      <path
         d="M 0,0 H 255 V 290 H 0 Z"
         transform="matrix(1,0,0,0.99771006,-109.14129,-210.37384)"
         id="path48" />
    </clipPath>
    <clipPath
       clipPathUnits="userSpaceOnUse"
       id="clipPath49">
      <path
         d="M 0,0 H 255 V 290 H 0 Z"
         id="path49" />
    </clipPath>
    <clipPath
       clipPathUnits="userSpaceOnUse"
       id="clipPath51">
      <path
         d="M 0,0 H 255 V 290 H 0 Z"
         transform="matrix(1,0,0,0.99771006,-56.213422,-210.37084)"
         id="path51" />
    </clipPath>
    <clipPath
       clipPathUnits="userSpaceOnUse"
       id="clipPath52">
      <path
         d="M 0,0 H 255 V 290 H 0 Z"
         id="path52" />
    </clipPath>
    <clipPath
       clipPathUnits="userSpaceOnUse"
       id="clipPath54">
      <path
         d="M 0,0 H 255 V 290 H 0 Z"
         id="path54" />
    </clipPath>
    <clipPath
       clipPathUnits="userSpaceOnUse"
       id="clipPath56">
      <path
         d="M 0,0 H 255 V 290 H 0 Z"
         transform="matrix(1,0,0,0.99771006,-120.91383,-270.71919)"
         id="path56" />
    </clipPath>
    <clipPath
       clipPathUnits="userSpaceOnUse"
       id="clipPath57">
      <path
         d="M 0,0 H 255 V 290 H 0 Z"
         transform="matrix(1,0,0,0.99771006,-148.77692,-280.3237)"
         id="path57" />
    </clipPath>
    <clipPath
       clipPathUnits="userSpaceOnUse"
       id="clipPath58">
      <path
         d="M 0,0 H 255 V 290 H 0 Z"
         id="path58" />
    </clipPath>
    <clipPath
       clipPathUnits="userSpaceOnUse"
       id="clipPath60">
      <path
         d="M 0,0 H 255 V 290 H 0 Z"
         transform="matrix(1,0,0,0.99771006,-137.4516,-253.9413)"
         id="path60" />
    </clipPath>
    <clipPath
       clipPathUnits="userSpaceOnUse"
       id="clipPath61">
      <path
         d="M 0,0 H 255 V 290 H 0 Z"
         id="path61" />
    </clipPath>
    <clipPath
       clipPathUnits="userSpaceOnUse"
       id="clipPath63">
      <path
         d="M 0,0 H 255 V 290 H 0 Z"
         transform="matrix(1,0,0,0.99771006,-58.834651,-275.47143)"
         id="path63" />
    </clipPath>
    <clipPath
       clipPathUnits="userSpaceOnUse"
       id="clipPath64">
      <path
         d="M 0,0 H 255 V 290 H 0 Z"
         id="path64" />
    </clipPath>
    <clipPath
       clipPathUnits="userSpaceOnUse"
       id="clipPath66">
      <path
         d="M 0,0 H 255 V 290 H 0 Z"
         transform="matrix(1,0,0,0.99771006,-56.413519,-254.04135)"
         id="path66" />
    </clipPath>
    <clipPath
       clipPathUnits="userSpaceOnUse"
       id="clipPath67">
      <path
         d="M 0,0 H 255 V 290 H 0 Z"
         id="path67" />
    </clipPath>
    <clipPath
       clipPathUnits="userSpaceOnUse"
       id="clipPath69">
      <path
         d="M 0,0 H 255 V 290 H 0 Z"
         transform="matrix(0,1.0022952,-1,0,31.506916,-15.427566)"
         id="path69" />
    </clipPath>
    <clipPath
       clipPathUnits="userSpaceOnUse"
       id="clipPath70">
      <path
         d="M 0,0 H 255 V 290 H 0 Z"
         id="path70" />
    </clipPath>
    <clipPath
       clipPathUnits="userSpaceOnUse"
       id="clipPath72">
      <path
         d="M 0,0 H 255 V 290 H 0 Z"
         transform="matrix(0,1.0022952,-1,0,129.2265,-15.427566)"
         id="path72" />
    </clipPath>
    <clipPath
       clipPathUnits="userSpaceOnUse"
       id="clipPath73">
      <path
         d="M 0,0 H 255 V 290 H 0 Z"
         id="path73" />
    </clipPath>
    <clipPath
       clipPathUnits="userSpaceOnUse"
       id="clipPath75">
      <path
         d="M 0,0 H 255 V 290 H 0 Z"
         transform="matrix(0,1.0022952,-1,0,205.93813,-10.614287)"
         id="path75" />
    </clipPath>
    <clipPath
       clipPathUnits="userSpaceOnUse"
       id="clipPath76">
      <path
         d="M 0,0 H 255 V 290 H 0 Z"
         transform="matrix(0,1.0022952,-1,0,211.30292,-20.240844)"
         id="path76" />
    </clipPath>
    <clipPath
       clipPathUnits="userSpaceOnUse"
       id="clipPath77">
      <path
         d="M 0,0 H 255 V 290 H 0 Z"
         id="path77" />
    </clipPath>
    <clipPath
       clipPathUnits="userSpaceOnUse"
       id="clipPath79">
      <path
         d="M 0,0 H 255 V 290 H 0 Z"
         transform="matrix(0,1.0022952,-1,0,278.1373,-15.427566)"
         id="path79" />
    </clipPath>
    <clipPath
       clipPathUnits="userSpaceOnUse"
       id="clipPath80">
      <path
         d="M 0,0 H 255 V 290 H 0 Z"
         id="path80" />
    </clipPath>
    <clipPath
       clipPathUnits="userSpaceOnUse"
       id="clipPath82">
      <path
         d="M 0,0 H 255 V 290 H 0 Z"
         id="path82" />
    </clipPath>
    <clipPath
       clipPathUnits="userSpaceOnUse"
       id="clipPath84">
      <path
         d="M 0,0 H 255 V 290 H 0 Z"
         id="path84" />
    </clipPath>
    <clipPath
       clipPathUnits="userSpaceOnUse"
       id="clipPath86">
      <path
         d="M 0,0 H 255 V 290 H 0 Z"
         id="path86" />
    </clipPath>
    <clipPath
       clipPathUnits="userSpaceOnUse"
       id="clipPath88">
      <path
         d="M 0,0 H 255 V 290 H 0 Z"
         transform="matrix(1,0,0,0.99771006,-135.40063,-113.57536)"
         id="path88" />
    </clipPath>
    <clipPath
       clipPathUnits="userSpaceOnUse"
       id="clipPath89">
      <path
         d="M 0,0 H 255 V 290 H 0 Z"
         id="path89" />
    </clipPath>
    <clipPath
       clipPathUnits="userSpaceOnUse"
       id="clipPath91">
      <path
         d="M 0,0 H 255 V 290 H 0 Z"
         transform="matrix(1,0,0,0.99771006,-135.80082,-131.83394)"
         id="path91" />
    </clipPath>
  </defs>
  <sodipodi:namedview
     id="namedview1"
     pagecolor="#ffffff"
     bordercolor="#000000"
     borderopacity="0.25"
     inkscape:showpageshadow="2"
     inkscape:pageopacity="0.0"
     inkscape:pagecheckerboard="0"
     inkscape:deskcolor="#d1d1d1"
     inkscape:zoom="1.8568966"
     inkscape:cx="170.17641"
     inkscape:cy="193.33333"
     inkscape:window-width="1920"
     inkscape:window-height="941"
     inkscape:window-x="0"
     inkscape:window-y="27"
     inkscape:window-maximized="1"
     inkscape:current-layer="g1">
    <inkscape:page
       x="0"
       y="0"
       id="page1"
       width="340"
       height="386.66666"
       margin="0"
       bleed="0" />
  </sodipodi:namedview>
  <g
     id="g1"
     inkscape:groupmode="layer"
     inkscape:label="">
    <g
       id="g2">
      <path
         d="M 34.336,7.703 C 34.383,3.434 37.809,0 42.02,0 h 205.296 c 4.192,0 7.618,3.434 7.563,7.703 v 30.684 c 0.055,4.207 -3.371,7.64 -7.563,7.699 H 42.02 C 37.809,46.027 34.383,42.594 34.336,38.387 V 7.703"
         style="fill:#b2d3eb;fill-opacity:1;fill-rule:evenodd;stroke:none"
         transform="scale(1.3333333)"
         clip-path="url(#clipPath1)"
         id="path2" />
    </g>
    <g
       id="g4">
      <path
         d="m 127.262,10.949 c 0.011,-1.222 0.965,-2.176 2.16,-2.164 h 112.73 c 1.176,-0.012 2.129,0.942 2.164,2.164 v 8.426 c -0.035,1.23 -0.988,2.184 -2.164,2.164 h -112.73 c -1.195,0.02 -2.149,-0.934 -2.16,-2.164 v -8.426"
         style="fill:#0070c0;fill-opacity:1;fill-rule:evenodd;stroke:none"
         transform="scale(1.3333333)"
         clip-path="url(#clipPath3)"
         id="path4" />
    </g>
    <g
       id="g5">
      <text
         xml:space="preserve"
         transform="matrix(1.3333333,0,0,1.3363936,215.95081,23.627852)"
         clip-path="url(#clipPath5)"
         id="text5"><tspan
           style="font-variant:normal;font-weight:normal;font-size:6.95327px;font-family:Arial;writing-mode:lr-tb;fill:#ffffff;fill-opacity:1;fill-rule:nonzero;stroke:none"
           x="0"
           dx="0 0.062579401 0 0 0 0 0 0 0.041719601 0 0 0 0.062579401"
           y="0"
           id="tspan5">Target genome</tspan></text>
    </g>
    <g
       id="g7">
      <path
         d="m 127.262,27.316 c -0.035,-1.144 0.914,-2.097 2.039,-2.046 h 112.851 c 1.125,-0.051 2.078,0.902 2.043,2.046 v 8.543 c 0.035,1.192 -0.918,2.145 -2.043,2.164 H 129.301 c -1.125,-0.019 -2.074,-0.972 -2.039,-2.164 v -8.543"
         style="fill:#0070c0;fill-opacity:1;fill-rule:evenodd;stroke:none"
         transform="scale(1.3333333)"
         clip-path="url(#clipPath6)"
         id="path7" />
    </g>
    <g
       id="g8">
      <text
         xml:space="preserve"
         transform="matrix(1.3333333,0,0,1.3363936,200.54357,45.555001)"
         clip-path="url(#clipPath8)"
         id="text8"><tspan
           style="font-variant:normal;font-weight:normal;font-size:6.95327px;font-family:Arial;writing-mode:lr-tb;fill:#ffffff;fill-opacity:1;fill-rule:nonzero;stroke:none"
           x="0"
           dx="0 0.034766339 0 0 0 0.041719601 0 0 0 0 0 0 0.041719601 0 0 0 0 0.04867287 0 0 0 0.041719601"
           y="0"
           id="tspan8">Reference proteins set</tspan></text>
    </g>
    <g
       id="g10">
      <path
         d="m 47.543,13.395 0.023,-0.274 0.032,-0.273 0.047,-0.266 0.062,-0.262 0.074,-0.261 0.18,-0.489 0.227,-0.472 0.269,-0.446 0.309,-0.414 0.347,-0.386 0.383,-0.348 0.414,-0.309 0.445,-0.273 0.473,-0.227 0.488,-0.179 0.262,-0.075 0.262,-0.058 0.262,-0.047 0.273,-0.035 0.273,-0.02 0.27,-0.008 h 61.625 l 0.269,0.008 0.274,0.02 0.269,0.035 0.266,0.047 0.262,0.058 0.258,0.075 0.492,0.179 0.469,0.227 0.445,0.273 0.414,0.309 0.383,0.348 0.347,0.386 0.309,0.414 0.273,0.446 0.227,0.472 0.176,0.489 0.078,0.261 0.058,0.262 0.047,0.266 0.036,0.273 0.019,0.274 0.008,0.269 v 19.602 l -0.008,0.269 -0.019,0.274 -0.036,0.269 -0.047,0.27 -0.058,0.261 -0.078,0.262 -0.176,0.488 -0.227,0.473 -0.273,0.445 -0.309,0.414 -0.347,0.387 -0.383,0.348 -0.414,0.308 -0.445,0.27 -0.469,0.23 -0.492,0.176 -0.258,0.078 -0.262,0.059 -0.266,0.047 -0.269,0.035 -0.274,0.019 -0.269,0.008 H 52.918 l -0.27,-0.008 -0.273,-0.019 -0.273,-0.035 -0.262,-0.047 -0.262,-0.059 -0.262,-0.078 -0.488,-0.176 -0.473,-0.23 -0.445,-0.27 -0.414,-0.308 -0.383,-0.348 -0.347,-0.387 -0.309,-0.414 -0.269,-0.445 -0.227,-0.473 -0.18,-0.488 -0.074,-0.262 -0.062,-0.261 -0.047,-0.27 -0.032,-0.269 -0.023,-0.274 -0.004,-0.269 V 13.664 Z m 0.996,0.289 v -0.012 19.586 -0.012 l 0.004,0.25 v -0.023 l 0.019,0.25 -0.003,-0.028 0.031,0.246 -0.004,-0.027 0.043,0.242 -0.004,-0.023 0.055,0.238 -0.008,-0.027 0.066,0.234 -0.011,-0.035 0.164,0.449 -0.02,-0.047 0.207,0.43 -0.023,-0.043 0.246,0.402 -0.028,-0.039 0.282,0.379 -0.032,-0.039 0.317,0.348 -0.035,-0.031 0.347,0.316 -0.035,-0.031 0.375,0.281 -0.039,-0.027 0.402,0.246 -0.043,-0.024 0.426,0.207 -0.047,-0.019 0.45,0.164 -0.036,-0.012 0.235,0.067 -0.028,-0.008 0.239,0.054 -0.024,-0.004 0.239,0.043 -0.024,-0.003 0.246,0.031 -0.027,-0.004 0.25,0.019 h -0.027 l 0.254,0.004 h -0.016 61.613 -0.012 l 0.25,-0.004 h -0.023 l 0.246,-0.019 -0.023,0.004 0.242,-0.031 -0.024,0.003 0.243,-0.043 -0.028,0.004 0.239,-0.054 -0.024,0.008 0.231,-0.067 -0.036,0.012 0.45,-0.164 -0.047,0.019 0.429,-0.207 -0.043,0.024 0.403,-0.246 -0.039,0.027 0.375,-0.281 -0.035,0.031 0.343,-0.316 -0.031,0.031 0.313,-0.348 -0.028,0.039 0.282,-0.379 -0.028,0.039 0.242,-0.402 -0.023,0.043 0.207,-0.43 -0.02,0.047 0.164,-0.449 -0.011,0.035 0.066,-0.234 -0.004,0.027 0.055,-0.238 -0.008,0.023 0.043,-0.242 -0.004,0.027 0.031,-0.246 v 0.028 l 0.016,-0.25 v 0.023 l 0.008,-0.25 v 0.012 -19.586 0.012 l -0.008,-0.25 v 0.023 l -0.016,-0.25 v 0.027 l -0.031,-0.246 0.004,0.028 -0.043,-0.243 0.008,0.024 -0.055,-0.238 0.004,0.027 -0.066,-0.234 0.011,0.035 -0.164,-0.449 0.02,0.046 -0.207,-0.429 0.023,0.043 -0.242,-0.403 0.028,0.039 -0.282,-0.379 0.028,0.04 -0.313,-0.348 0.031,0.031 -0.343,-0.316 0.035,0.031 -0.375,-0.281 0.039,0.027 -0.403,-0.246 0.043,0.023 -0.429,-0.207 0.047,0.02 -0.45,-0.164 0.036,0.012 -0.231,-0.067 0.024,0.008 -0.239,-0.055 0.028,0.004 -0.243,-0.043 0.024,0.004 -0.242,-0.031 0.023,0.004 -0.246,-0.02 h 0.023 l -0.25,-0.004 h 0.012 -61.613 0.016 l -0.254,0.004 h 0.027 l -0.25,0.02 0.027,-0.004 -0.246,0.031 0.024,-0.004 -0.239,0.043 0.024,-0.004 -0.239,0.055 0.028,-0.008 -0.235,0.067 0.036,-0.012 -0.45,0.164 0.047,-0.02 -0.426,0.207 0.043,-0.023 -0.402,0.246 0.039,-0.027 -0.375,0.281 0.035,-0.031 -0.347,0.316 0.035,-0.031 -0.317,0.348 0.032,-0.04 -0.282,0.379 0.028,-0.039 -0.246,0.403 0.023,-0.043 -0.207,0.429 0.02,-0.046 -0.164,0.449 0.011,-0.035 -0.066,0.234 0.008,-0.027 -0.055,0.238 0.004,-0.024 -0.043,0.243 0.004,-0.028 -0.031,0.246 0.003,-0.027 -0.019,0.25 v -0.023 l -0.004,0.25"
         style="fill:#0070c0;fill-opacity:1;fill-rule:nonzero;stroke:none"
         transform="scale(1.3333333)"
         clip-path="url(#clipPath9)"
         id="path10" />
    </g>
    <g
       id="g11">
      <text
         xml:space="preserve"
         transform="matrix(1.3333333,0,0,1.3363936,88.101407,35.070077)"
         clip-path="url(#clipPath11)"
         id="text11"><tspan
           style="font-variant:normal;font-weight:normal;font-size:8.05378px;font-family:Arial;writing-mode:lr-tb;fill:#000000;fill-opacity:1;fill-rule:nonzero;stroke:none"
           x="0"
           y="0"
           id="tspan11">Collecting</tspan></text>
    </g>
    <g
       id="g13">
      <path
         d="m 34.336,71.957 c 0.047,-8.016 6.516,-14.5 14.527,-14.437 h 191.731 c 7.922,-0.063 14.39,6.421 14.406,14.437 v 57.883 c -0.016,8.023 -6.484,14.508 -14.406,14.558 H 48.863 c -8.011,-0.05 -14.48,-6.535 -14.527,-14.558 V 71.957"
         style="fill:#b2e7ca;fill-opacity:1;fill-rule:evenodd;stroke:none"
         transform="scale(1.3333333)"
         clip-path="url(#clipPath12)"
         id="path13" />
    </g>
    <g
       id="g15">
      <path
         d="m 127.262,70.516 c 0.011,-1.172 0.965,-2.129 2.16,-2.168 h 112.73 c 1.227,0.039 2.176,0.996 2.164,2.168 v 8.543 c 0.012,1.16 -0.937,2.117 -2.164,2.164 h -112.73 c -1.195,-0.047 -2.149,-1.004 -2.16,-2.164 v -8.543"
         style="fill:#00b050;fill-opacity:1;fill-rule:evenodd;stroke:none"
         transform="scale(1.3333333)"
         clip-path="url(#clipPath14)"
         id="path15" />
    </g>
    <g
       id="g16">
      <text
         xml:space="preserve"
         transform="matrix(1.3333333,0,0,1.3363936,183.002,103.11379)"
         clip-path="url(#clipPath16)"
         id="text16"><tspan
           style="font-variant:normal;font-weight:normal;font-size:6.95327px;font-family:Arial;writing-mode:lr-tb;fill:#ffffff;fill-opacity:1;fill-rule:nonzero;stroke:none"
           x="0"
           dx="0 0.034766339 0 0 0 0.041719601 0 0 0 0 0 0 0.041719601 0 0 0 0 0.04867287 0 0 0 0 0 0 0 0.034766339"
           y="0"
           id="tspan16">Reference protein sets are split</tspan></text>
    </g>
    <g
       id="g18">
      <path
         d="m 47.648,70.25 0.043,-0.262 0.063,-0.25 0.09,-0.242 0.109,-0.23 0.133,-0.219 0.152,-0.203 0.168,-0.188 0.188,-0.168 0.203,-0.152 0.215,-0.129 0.23,-0.113 0.242,-0.09 0.25,-0.063 0.262,-0.043 0.254,-0.011 h 67.059 l 0.253,0.011 0.262,0.043 0.25,0.063 0.242,0.09 0.231,0.113 0.219,0.129 0.199,0.152 0.187,0.168 0.168,0.188 0.153,0.203 0.132,0.219 0.11,0.23 0.09,0.242 0.062,0.25 0.043,0.262 0.012,0.258 v 8.547 l -0.012,0.257 -0.043,0.262 -0.062,0.25 -0.09,0.242 -0.11,0.231 -0.132,0.219 -0.153,0.203 -0.168,0.187 -0.187,0.168 -0.199,0.153 -0.219,0.132 -0.231,0.11 -0.242,0.09 -0.25,0.062 -0.262,0.043 -0.253,0.012 H 50.25 l -0.254,-0.012 -0.262,-0.043 -0.25,-0.062 -0.242,-0.09 -0.23,-0.11 -0.215,-0.132 -0.203,-0.153 -0.188,-0.168 -0.168,-0.187 -0.152,-0.203 -0.133,-0.219 -0.109,-0.231 -0.09,-0.242 -0.063,-0.25 -0.043,-0.262 -0.011,-0.257 v -8.547 z m 0.989,0.293 V 70.52 79.043 79.02 l 0.011,0.214 -0.003,-0.05 0.031,0.214 -0.012,-0.05 0.055,0.203 -0.016,-0.047 0.07,0.195 -0.015,-0.043 0.086,0.184 -0.024,-0.043 0.11,0.176 -0.028,-0.039 0.121,0.164 -0.031,-0.036 0.137,0.149 -0.031,-0.031 0.152,0.136 -0.039,-0.031 0.164,0.125 -0.039,-0.027 0.176,0.105 -0.043,-0.023 0.183,0.09 -0.043,-0.02 0.196,0.07 -0.047,-0.011 0.203,0.051 -0.051,-0.008 0.211,0.031 -0.051,-0.004 0.219,0.008 h -0.027 67.035 -0.027 l 0.218,-0.008 -0.05,0.004 0.21,-0.031 -0.05,0.008 0.203,-0.051 -0.047,0.011 0.195,-0.07 -0.043,0.02 0.184,-0.09 -0.043,0.023 0.176,-0.105 -0.039,0.027 0.164,-0.125 -0.036,0.031 0.149,-0.136 -0.031,0.031 0.136,-0.149 -0.031,0.036 0.121,-0.164 -0.027,0.039 0.109,-0.176 -0.023,0.043 0.09,-0.184 -0.02,0.043 0.07,-0.195 -0.015,0.047 0.055,-0.203 -0.012,0.05 0.031,-0.214 -0.004,0.05 0.012,-0.214 v 0.023 -8.523 0.023 l -0.012,-0.215 0.004,0.051 -0.031,-0.215 0.012,0.051 -0.055,-0.203 0.015,0.047 -0.07,-0.196 0.02,0.043 -0.09,-0.183 0.023,0.043 -0.109,-0.176 0.027,0.039 -0.121,-0.164 0.031,0.035 -0.136,-0.148 0.031,0.031 -0.149,-0.137 0.036,0.031 -0.164,-0.125 0.039,0.028 -0.176,-0.106 0.043,0.024 -0.184,-0.09 0.043,0.019 -0.195,-0.07 0.047,0.012 -0.203,-0.051 0.05,0.008 -0.21,-0.031 0.05,0.003 -0.218,-0.007 h 0.027 -67.035 0.027 l -0.219,0.007 0.051,-0.003 -0.211,0.031 0.051,-0.008 -0.203,0.051 0.047,-0.012 -0.196,0.07 0.043,-0.019 -0.183,0.09 0.043,-0.024 -0.176,0.106 0.039,-0.028 -0.164,0.125 0.039,-0.031 -0.152,0.137 0.031,-0.031 -0.137,0.148 0.031,-0.035 -0.121,0.164 0.028,-0.039 -0.11,0.176 0.024,-0.043 -0.086,0.183 0.015,-0.043 -0.07,0.196 0.016,-0.047 -0.055,0.203 0.012,-0.051 -0.031,0.215 0.003,-0.051 -0.011,0.215"
         style="fill:#00b050;fill-opacity:1;fill-rule:nonzero;stroke:none"
         transform="scale(1.3333333)"
         clip-path="url(#clipPath17)"
         id="path18" />
    </g>
    <g
       id="g19">
      <text
         xml:space="preserve"
         transform="matrix(1.3333333,0,0,1.3363936,101.29694,103.58175)"
         clip-path="url(#clipPath19)"
         id="text19"><tspan
           style="font-variant:normal;font-weight:normal;font-size:8.05378px;font-family:Arial;writing-mode:lr-tb;fill:#202020;fill-opacity:1;fill-rule:nonzero;stroke:none"
           x="0"
           dx="0 0 -0.04026892"
           y="0"
           id="tspan19">Split</tspan></text>
    </g>
    <g
       id="g21">
      <path
         d="m 127.379,88.684 c -0.055,-1.141 0.898,-2.094 2.043,-2.043 h 112.851 c 1.204,-0.051 2.157,0.902 2.161,2.043 v 8.543 c -0.004,1.195 -0.957,2.148 -2.161,2.168 H 129.422 c -1.145,-0.02 -2.098,-0.973 -2.043,-2.168 v -8.543"
         style="fill:#00b050;fill-opacity:1;fill-rule:evenodd;stroke:none"
         transform="scale(1.3333333)"
         clip-path="url(#clipPath20)"
         id="path21" />
    </g>
    <g
       id="g22">
      <text
         xml:space="preserve"
         transform="matrix(1.3333333,0,0,1.3363936,205.21244,127.38073)"
         clip-path="url(#clipPath22)"
         id="text22"><tspan
           style="font-variant:normal;font-weight:normal;font-size:6.95327px;font-family:Arial;writing-mode:lr-tb;fill:#ffffff;fill-opacity:1;fill-rule:nonzero;stroke:none"
           x="0"
           dx="0 0 0 0 0 0.041719601 0 0.034766339 0 0.041719601 0 0 0 0.041719601 0 0 0.041719601"
           y="0"
           id="tspan22">Batch run genblastG</tspan></text>
    </g>
    <g
       id="g24">
      <path
         d="m 47.648,88.449 0.043,-0.258 0.063,-0.253 0.09,-0.243 0.109,-0.23 0.133,-0.219 0.152,-0.199 0.168,-0.188 0.188,-0.171 0.203,-0.153 0.215,-0.129 0.23,-0.113 0.242,-0.09 0.25,-0.062 0.262,-0.039 0.254,-0.016 h 67.457 l 0.258,0.016 0.258,0.039 0.254,0.062 0.242,0.09 0.23,0.113 0.215,0.129 0.203,0.153 0.188,0.171 0.168,0.188 0.152,0.199 0.129,0.219 0.113,0.23 0.086,0.243 0.067,0.253 0.039,0.258 0.011,0.258 v 8.551 l -0.011,0.254 -0.039,0.261 -0.067,0.254 -0.086,0.243 -0.113,0.23 -0.129,0.215 -0.152,0.203 -0.168,0.187 -0.188,0.168 -0.203,0.153 -0.215,0.133 -0.23,0.109 -0.242,0.09 -0.254,0.066 -0.258,0.039 -0.258,0.012 H 50.25 l -0.254,-0.012 -0.262,-0.039 -0.25,-0.066 -0.242,-0.09 -0.23,-0.109 -0.215,-0.133 -0.203,-0.153 -0.188,-0.168 -0.168,-0.187 -0.152,-0.203 -0.133,-0.215 -0.109,-0.23 -0.09,-0.243 -0.063,-0.254 -0.043,-0.261 -0.011,-0.254 v -8.551 z m 0.989,0.297 v -0.027 8.523 -0.023 l 0.011,0.219 -0.003,-0.051 0.031,0.211 -0.012,-0.051 0.055,0.203 -0.016,-0.047 0.07,0.195 -0.015,-0.043 0.086,0.188 L 48.82,98 l 0.11,0.172 -0.028,-0.039 0.121,0.164 -0.031,-0.035 0.137,0.152 -0.031,-0.035 0.152,0.137 -0.039,-0.032 0.164,0.125 -0.039,-0.027 0.176,0.106 -0.043,-0.024 0.183,0.09 -0.043,-0.02 0.196,0.075 -0.047,-0.016 0.203,0.051 -0.051,-0.008 0.211,0.031 -0.051,-0.004 0.219,0.012 -0.027,-0.004 h 67.433 l -0.023,0.004 0.215,-0.012 -0.051,0.004 0.211,-0.031 -0.047,0.008 0.203,-0.051 -0.047,0.016 0.196,-0.075 -0.047,0.02 0.187,-0.09 -0.043,0.024 0.176,-0.106 -0.039,0.027 0.16,-0.125 -0.035,0.032 0.152,-0.137 -0.035,0.035 0.137,-0.152 -0.031,0.035 0.125,-0.164 -0.028,0.039 0.106,-0.172 -0.024,0.043 0.09,-0.188 -0.019,0.043 0.074,-0.195 -0.016,0.047 0.051,-0.203 -0.008,0.051 0.031,-0.211 -0.004,0.051 0.008,-0.219 v 0.023 -8.523 0.027 l -0.008,-0.219 0.004,0.051 -0.031,-0.211 0.008,0.047 -0.051,-0.203 0.016,0.047 -0.074,-0.196 0.019,0.047 -0.09,-0.187 0.024,0.043 -0.106,-0.176 0.028,0.039 -0.125,-0.164 0.031,0.039 -0.137,-0.152 0.035,0.031 -0.152,-0.137 0.035,0.032 -0.16,-0.122 0.039,0.028 -0.176,-0.11 0.043,0.024 -0.187,-0.09 0.047,0.02 -0.196,-0.071 0.047,0.016 -0.203,-0.055 0.047,0.012 -0.211,-0.035 0.051,0.008 -0.215,-0.012 h 0.023 -67.433 0.027 l -0.219,0.012 0.051,-0.008 -0.211,0.035 0.051,-0.012 -0.203,0.055 0.047,-0.016 -0.196,0.071 0.043,-0.02 -0.183,0.09 0.043,-0.024 -0.176,0.11 0.039,-0.028 -0.164,0.122 0.039,-0.032 -0.152,0.137 0.031,-0.031 -0.137,0.152 0.031,-0.039 -0.121,0.164 0.028,-0.039 -0.11,0.176 0.024,-0.043 -0.086,0.187 0.015,-0.047 -0.07,0.196 0.016,-0.047 -0.055,0.203 0.012,-0.047 -0.031,0.211 0.003,-0.051 -0.011,0.219"
         style="fill:#00b050;fill-opacity:1;fill-rule:nonzero;stroke:none"
         transform="scale(1.3333333)"
         clip-path="url(#clipPath23)"
         id="path24" />
    </g>
    <g
       id="g25">
      <text
         xml:space="preserve"
         transform="matrix(1.3333333,0,0,1.3363936,78.419528,127.84869)"
         clip-path="url(#clipPath25)"
         id="text25"><tspan
           style="font-variant:normal;font-weight:normal;font-size:8.05378px;font-family:Arial;writing-mode:lr-tb;fill:#000000;fill-opacity:1;fill-rule:nonzero;stroke:none"
           x="0"
           dx="0 -0.056376491"
           y="0"
           id="tspan25">Multithreading</tspan></text>
    </g>
    <g
       id="g27">
      <path
         d="m 47.648,106.652 0.043,-0.261 0.063,-0.254 0.09,-0.242 0.109,-0.231 0.133,-0.215 0.152,-0.203 0.168,-0.187 0.188,-0.172 0.203,-0.149 0.215,-0.133 0.23,-0.109 0.242,-0.09 0.25,-0.066 0.262,-0.039 0.254,-0.012 h 67.508 l 0.254,0.012 0.261,0.039 0.254,0.066 0.243,0.09 0.226,0.109 0.219,0.133 0.203,0.149 0.184,0.172 0.171,0.187 0.149,0.203 0.133,0.215 0.109,0.231 0.09,0.242 0.066,0.254 0.039,0.261 0.012,0.254 v 8.551 l -0.012,0.254 -0.039,0.262 -0.066,0.254 -0.09,0.242 -0.109,0.23 -0.133,0.215 -0.149,0.203 -0.171,0.188 -0.184,0.172 -0.203,0.148 -0.219,0.133 -0.226,0.113 -0.243,0.086 -0.254,0.066 -0.261,0.039 -0.254,0.012 H 50.25 l -0.254,-0.012 -0.262,-0.039 -0.25,-0.066 -0.242,-0.086 -0.23,-0.113 -0.215,-0.133 -0.203,-0.148 -0.188,-0.172 -0.168,-0.188 -0.152,-0.203 -0.133,-0.215 -0.109,-0.23 -0.09,-0.242 -0.063,-0.254 -0.043,-0.262 -0.011,-0.254 v -8.551 z m 0.989,0.293 v -0.023 8.523 -0.027 l 0.011,0.219 -0.003,-0.051 0.031,0.211 -0.012,-0.047 0.055,0.203 -0.016,-0.047 0.07,0.196 -0.015,-0.047 0.086,0.187 -0.024,-0.043 0.11,0.176 -0.028,-0.039 0.121,0.164 -0.031,-0.039 0.137,0.152 -0.031,-0.035 0.152,0.141 -0.039,-0.031 0.164,0.121 -0.039,-0.028 0.176,0.106 -0.043,-0.02 0.183,0.09 -0.043,-0.019 0.196,0.07 -0.047,-0.016 0.203,0.055 -0.051,-0.012 0.211,0.031 -0.051,-0.004 0.219,0.012 h -0.027 67.484 -0.027 l 0.219,-0.012 -0.051,0.004 0.211,-0.031 -0.047,0.012 0.203,-0.055 -0.047,0.016 0.195,-0.07 -0.047,0.019 0.188,-0.09 -0.043,0.02 0.176,-0.106 -0.043,0.028 0.164,-0.121 -0.035,0.031 0.148,-0.141 -0.031,0.035 0.137,-0.152 -0.032,0.039 0.125,-0.164 -0.027,0.039 0.106,-0.176 -0.024,0.043 0.09,-0.187 -0.02,0.047 0.071,-0.196 -0.012,0.047 0.051,-0.203 -0.008,0.047 0.031,-0.211 -0.008,0.051 0.012,-0.219 v 0.027 -8.523 0.023 l -0.012,-0.218 0.008,0.05 -0.031,-0.211 0.008,0.047 -0.051,-0.203 0.012,0.047 -0.071,-0.195 0.02,0.047 -0.09,-0.188 0.024,0.043 -0.106,-0.176 0.027,0.039 -0.125,-0.164 0.032,0.039 -0.137,-0.152 0.031,0.035 -0.148,-0.14 0.035,0.031 -0.164,-0.121 0.043,0.027 -0.176,-0.105 0.043,0.019 -0.188,-0.09 0.047,0.024 -0.195,-0.075 0.047,0.016 -0.203,-0.055 0.047,0.012 -0.211,-0.031 0.051,0.004 -0.219,-0.012 h 0.027 -67.484 0.027 l -0.219,0.012 0.051,-0.004 -0.211,0.031 0.051,-0.012 -0.203,0.055 0.047,-0.016 -0.196,0.075 0.043,-0.024 -0.183,0.09 0.043,-0.019 -0.176,0.105 0.039,-0.027 -0.164,0.121 0.039,-0.031 -0.152,0.14 0.031,-0.035 -0.137,0.152 0.031,-0.039 -0.121,0.164 0.028,-0.039 -0.11,0.176 0.024,-0.043 -0.086,0.188 0.015,-0.047 -0.07,0.195 0.016,-0.047 -0.055,0.203 0.012,-0.047 -0.031,0.211 0.003,-0.05 -0.011,0.218"
         style="fill:#00b050;fill-opacity:1;fill-rule:nonzero;stroke:none"
         transform="scale(1.3333333)"
         clip-path="url(#clipPath26)"
         id="path27" />
    </g>
    <g
       id="g28">
      <text
         xml:space="preserve"
         transform="matrix(1.3333333,0,0,1.3363936,96.227896,152.11564)"
         clip-path="url(#clipPath28)"
         id="text28"><tspan
           style="font-variant:normal;font-weight:normal;font-size:8.05378px;font-family:Arial;writing-mode:lr-tb;fill:#000000;fill-opacity:1;fill-rule:nonzero;stroke:none"
           x="0"
           y="0"
           id="tspan28">Repair</tspan></text>
    </g>
    <g
       id="g30">
      <path
         d="m 47.648,124.852 0.043,-0.262 0.063,-0.25 0.09,-0.246 0.109,-0.231 0.133,-0.215 0.152,-0.203 0.168,-0.187 0.188,-0.168 0.203,-0.152 0.215,-0.133 0.23,-0.11 0.242,-0.09 0.25,-0.062 0.262,-0.043 0.254,-0.012 h 67.559 l 0.253,0.012 0.262,0.043 0.25,0.062 0.242,0.09 0.231,0.11 0.219,0.133 0.199,0.152 0.187,0.168 0.172,0.187 0.149,0.203 0.132,0.215 0.11,0.231 0.09,0.246 0.062,0.25 0.043,0.262 0.012,0.253 v 8.551 l -0.012,0.258 -0.043,0.258 -0.062,0.254 -0.09,0.242 -0.11,0.23 -0.132,0.219 -0.149,0.199 -0.172,0.188 -0.187,0.172 -0.199,0.152 -0.219,0.129 -0.231,0.113 -0.242,0.09 -0.25,0.063 -0.262,0.039 -0.253,0.015 H 50.25 l -0.254,-0.015 -0.262,-0.039 -0.25,-0.063 -0.242,-0.09 -0.23,-0.113 -0.215,-0.129 -0.203,-0.152 -0.188,-0.172 -0.168,-0.188 -0.152,-0.199 -0.133,-0.219 -0.109,-0.23 -0.09,-0.242 -0.063,-0.254 -0.043,-0.258 -0.011,-0.258 v -8.551 z m 0.989,0.293 v -0.024 8.524 -0.028 l 0.011,0.219 -0.003,-0.051 0.031,0.211 -0.012,-0.047 0.055,0.203 -0.016,-0.047 0.07,0.196 -0.015,-0.047 0.086,0.187 -0.024,-0.043 0.11,0.176 -0.028,-0.039 0.121,0.164 -0.031,-0.039 0.137,0.152 -0.031,-0.031 0.152,0.137 -0.039,-0.031 0.164,0.121 -0.039,-0.028 0.176,0.11 -0.043,-0.024 0.183,0.09 -0.043,-0.019 0.196,0.07 -0.047,-0.016 0.203,0.055 -0.051,-0.012 0.211,0.036 -0.051,-0.008 0.219,0.011 h -0.027 67.535 -0.027 l 0.218,-0.011 -0.05,0.008 0.21,-0.036 -0.05,0.012 0.203,-0.055 -0.047,0.016 0.195,-0.07 -0.043,0.019 0.184,-0.09 -0.043,0.024 0.18,-0.11 -0.043,0.028 0.164,-0.121 -0.036,0.031 0.149,-0.137 -0.031,0.031 0.136,-0.152 -0.031,0.039 0.121,-0.164 -0.023,0.039 0.105,-0.176 -0.023,0.043 0.09,-0.187 -0.02,0.047 0.07,-0.196 -0.015,0.047 0.055,-0.203 -0.012,0.047 0.035,-0.211 -0.008,0.051 0.012,-0.219 v 0.028 -8.524 0.024 l -0.012,-0.219 0.008,0.051 -0.035,-0.211 0.012,0.05 -0.055,-0.203 0.015,0.047 -0.07,-0.195 0.02,0.043 -0.09,-0.188 0.023,0.043 -0.105,-0.172 0.023,0.039 -0.121,-0.164 0.031,0.036 -0.136,-0.153 0.031,0.035 -0.149,-0.136 0.036,0.031 -0.164,-0.125 0.043,0.027 -0.18,-0.105 0.043,0.023 -0.184,-0.09 0.043,0.02 -0.195,-0.074 0.047,0.015 -0.203,-0.05 0.05,0.007 -0.21,-0.031 0.05,0.004 -0.218,-0.012 0.027,0.004 H 50.262 l 0.027,-0.004 -0.219,0.012 0.051,-0.004 -0.211,0.031 0.051,-0.007 -0.203,0.05 0.047,-0.015 -0.196,0.074 0.043,-0.02 -0.183,0.09 0.043,-0.023 -0.176,0.105 0.039,-0.027 -0.164,0.125 0.039,-0.031 -0.152,0.136 0.031,-0.035 -0.137,0.153 0.031,-0.036 -0.121,0.164 0.028,-0.039 -0.11,0.172 0.024,-0.043 -0.086,0.188 0.015,-0.043 -0.07,0.195 0.016,-0.047 -0.055,0.203 0.012,-0.05 -0.031,0.211 0.003,-0.051 -0.011,0.219"
         style="fill:#00b050;fill-opacity:1;fill-rule:nonzero;stroke:none"
         transform="scale(1.3333333)"
         clip-path="url(#clipPath29)"
         id="path30" />
    </g>
    <g
       id="g31">
      <text
         xml:space="preserve"
         transform="matrix(1.3333333,0,0,1.3363936,76.418588,176.38258)"
         clip-path="url(#clipPath31)"
         id="text31"><tspan
           style="font-variant:normal;font-weight:normal;font-size:8.05378px;font-family:Arial;writing-mode:lr-tb;fill:#000000;fill-opacity:1;fill-rule:nonzero;stroke:none"
           x="0"
           y="0"
           id="tspan31">Reconstruction</tspan></text>
    </g>
    <g
       id="g33">
      <path
         d="m 34.336,167.262 c 0.047,-6.387 5.176,-11.532 11.527,-11.551 h 197.731 c 6.308,0.019 11.441,5.164 11.406,11.551 v 45.965 c 0.035,6.3 -5.098,11.441 -11.406,11.433 H 45.863 c -6.351,0.008 -11.48,-5.133 -11.527,-11.433 v -45.965"
         style="fill:#d3c0e2;fill-opacity:1;fill-rule:evenodd;stroke:none"
         transform="scale(1.3333333)"
         clip-path="url(#clipPath32)"
         id="path33" />
    </g>
    <g
       id="g35">
      <path
         d="m 97.004,168.945 c 0.008,-1.129 0.961,-2.086 2.164,-2.043 h 142.984 c 1.223,-0.043 2.176,0.914 2.164,2.043 v 8.664 c 0.012,1.129 -0.941,2.086 -2.164,2.047 H 99.168 c -1.203,0.039 -2.156,-0.918 -2.164,-2.047 v -8.664"
         style="fill:#6f2f9f;fill-opacity:1;fill-rule:evenodd;stroke:none"
         transform="scale(1.3333333)"
         clip-path="url(#clipPath34)"
         id="path35" />
    </g>
    <g
       id="g36">
      <text
         xml:space="preserve"
         transform="matrix(1.3333333,0,0,1.3363936,161.72933,234.88129)"
         clip-path="url(#clipPath36)"
         id="text36"><tspan
           style="font-variant:normal;font-weight:normal;font-size:8.05378px;font-family:Arial;writing-mode:lr-tb;fill:#ffffff;fill-opacity:1;fill-rule:nonzero;stroke:none"
           x="0"
           y="0"
           id="tspan36">Filter out overlapping genes</tspan></text>
    </g>
    <g
       id="g38">
      <path
         d="m 47.551,168.773 0.039,-0.261 0.066,-0.254 0.086,-0.242 0.113,-0.231 0.129,-0.215 0.153,-0.203 0.168,-0.187 0.187,-0.172 0.203,-0.149 0.215,-0.132 0.231,-0.11 0.242,-0.09 0.254,-0.066 0.258,-0.039 0.257,-0.012 h 36.891 l 0.258,0.012 0.258,0.039 0.253,0.066 0.243,0.09 0.23,0.11 0.215,0.132 0.203,0.149 0.188,0.172 0.168,0.187 0.148,0.203 0.133,0.215 0.109,0.231 0.09,0.242 0.066,0.254 0.04,0.261 0.011,0.254 v 8.551 l -0.011,0.254 -0.04,0.262 -0.066,0.254 -0.09,0.242 -0.109,0.23 -0.133,0.215 -0.148,0.203 -0.168,0.188 -0.188,0.172 -0.203,0.148 -0.215,0.133 -0.23,0.113 -0.243,0.086 -0.253,0.067 -0.258,0.039 -0.258,0.011 H 50.152 l -0.257,-0.011 -0.258,-0.039 -0.254,-0.067 -0.242,-0.086 -0.231,-0.113 -0.215,-0.133 -0.203,-0.148 -0.187,-0.172 -0.168,-0.188 -0.153,-0.203 -0.129,-0.215 -0.113,-0.23 -0.086,-0.242 -0.066,-0.254 -0.039,-0.262 -0.012,-0.254 v -8.551 z m 0.984,0.293 0.004,-0.023 v 8.523 l -0.004,-0.027 0.012,0.219 -0.004,-0.051 0.031,0.211 -0.008,-0.047 0.051,0.203 -0.015,-0.047 0.074,0.196 -0.02,-0.047 0.09,0.187 -0.023,-0.043 0.105,0.176 -0.027,-0.039 0.125,0.164 -0.031,-0.039 0.136,0.152 -0.035,-0.035 0.152,0.141 -0.039,-0.031 0.164,0.121 -0.039,-0.028 0.176,0.11 -0.043,-0.024 0.188,0.09 -0.047,-0.019 0.195,0.07 -0.047,-0.016 0.203,0.055 -0.05,-0.012 0.214,0.032 -0.05,-0.004 0.215,0.011 h -0.024 36.867 -0.023 l 0.215,-0.011 -0.051,0.004 0.211,-0.032 -0.047,0.012 0.203,-0.055 -0.047,0.016 0.196,-0.07 -0.047,0.019 0.187,-0.09 -0.043,0.024 0.176,-0.11 -0.039,0.028 0.16,-0.121 -0.035,0.031 0.152,-0.141 -0.035,0.035 0.137,-0.152 -0.031,0.039 0.125,-0.164 -0.028,0.039 0.106,-0.176 -0.024,0.043 0.09,-0.187 -0.019,0.047 0.07,-0.196 -0.012,0.047 0.051,-0.203 -0.008,0.047 0.031,-0.211 -0.004,0.051 0.008,-0.219 v 0.027 -8.523 0.023 l -0.008,-0.218 0.004,0.05 -0.031,-0.21 0.008,0.05 -0.051,-0.207 0.012,0.047 -0.07,-0.195 0.019,0.047 -0.09,-0.188 0.024,0.043 -0.106,-0.176 0.028,0.039 -0.125,-0.16 0.031,0.035 -0.137,-0.152 0.035,0.035 -0.152,-0.136 0.035,0.031 -0.16,-0.125 0.039,0.027 -0.176,-0.105 0.043,0.023 -0.187,-0.094 0.047,0.024 -0.196,-0.074 0.047,0.015 -0.203,-0.054 0.047,0.011 -0.211,-0.031 0.051,0.004 -0.215,-0.012 h 0.023 -36.867 0.024 l -0.215,0.012 0.05,-0.004 -0.214,0.031 0.05,-0.011 -0.203,0.054 0.047,-0.015 -0.195,0.074 0.047,-0.024 -0.188,0.094 0.043,-0.023 -0.176,0.105 0.039,-0.027 -0.164,0.125 0.039,-0.031 -0.152,0.136 0.035,-0.035 -0.136,0.152 0.031,-0.035 -0.125,0.16 0.027,-0.039 -0.105,0.176 0.023,-0.043 -0.09,0.188 0.02,-0.047 -0.074,0.195 0.015,-0.047 -0.051,0.207 0.008,-0.05 -0.031,0.21 0.004,-0.05 -0.012,0.218"
         style="fill:#6f2f9f;fill-opacity:1;fill-rule:nonzero;stroke:none"
         transform="scale(1.3333333)"
         clip-path="url(#clipPath37)"
         id="path38" />
    </g>
    <g
       id="g39">
      <text
         xml:space="preserve"
         transform="matrix(1.3333333,0,0,1.3363936,79.553391,234.94414)"
         clip-path="url(#clipPath39)"
         id="text39"><tspan
           style="font-variant:normal;font-weight:normal;font-size:8.05378px;font-family:Arial;writing-mode:lr-tb;fill:#000000;fill-opacity:1;fill-rule:nonzero;stroke:none"
           x="0"
           y="0"
           id="tspan39">Filter</tspan></text>
    </g>
    <g
       id="g41">
      <path
         d="m 97.004,186.395 c 0.008,-1.231 0.961,-2.188 2.164,-2.168 h 142.984 c 1.223,-0.02 2.176,0.937 2.164,2.168 v 8.543 c 0.012,1.148 -0.941,2.105 -2.164,2.167 H 99.168 c -1.203,-0.062 -2.156,-1.019 -2.164,-2.167 v -8.543"
         style="fill:#6f2f9f;fill-opacity:1;fill-rule:evenodd;stroke:none"
         transform="scale(1.3333333)"
         clip-path="url(#clipPath40)"
         id="path41" />
    </g>
    <g
       id="g42">
      <text
         xml:space="preserve"
         transform="matrix(1.3333333,0,0,1.3363936,154.99284,258.01177)"
         clip-path="url(#clipPath42)"
         id="text42"><tspan
           style="font-variant:normal;font-weight:normal;font-size:8.05378px;font-family:Arial;writing-mode:lr-tb;fill:#ffffff;fill-opacity:1;fill-rule:nonzero;stroke:none"
           x="0"
           dx="0 0 -0.04026892 0 0 0 -0.056376491 0 0 0 0 0 0 0 0 0 0 0 0 0 0 0 0 -0.056376491 0 0 0 -0.056376491"
           y="0"
           id="tspan42">Sort GFF3 file by chromosome</tspan></text>
    </g>
    <g
       id="g44">
      <path
         d="m 47.551,186.07 0.039,-0.261 0.066,-0.25 0.086,-0.247 0.113,-0.23 0.129,-0.215 0.153,-0.203 0.168,-0.187 0.187,-0.168 0.203,-0.153 0.215,-0.133 0.231,-0.109 0.242,-0.09 0.254,-0.062 0.258,-0.043 0.257,-0.012 h 36.891 l 0.258,0.012 0.258,0.043 0.253,0.062 0.243,0.09 0.23,0.109 0.215,0.133 0.203,0.153 0.188,0.168 0.168,0.187 0.148,0.203 0.133,0.215 0.109,0.23 0.09,0.247 0.066,0.25 0.04,0.261 0.011,0.254 v 8.551 l -0.011,0.258 -0.04,0.258 -0.066,0.254 -0.09,0.242 -0.109,0.23 -0.133,0.219 -0.148,0.203 -0.168,0.188 -0.188,0.168 -0.203,0.152 -0.215,0.129 -0.23,0.113 -0.243,0.09 -0.253,0.062 -0.258,0.039 -0.258,0.016 H 50.152 l -0.257,-0.016 -0.258,-0.039 -0.254,-0.062 -0.242,-0.09 -0.231,-0.113 -0.215,-0.129 -0.203,-0.152 -0.187,-0.168 -0.168,-0.188 -0.153,-0.203 -0.129,-0.219 -0.113,-0.23 -0.086,-0.242 -0.066,-0.254 -0.039,-0.258 -0.012,-0.258 v -8.551 z m 0.984,0.293 0.004,-0.023 v 8.523 l -0.004,-0.027 0.012,0.219 -0.004,-0.051 0.031,0.211 -0.008,-0.047 0.051,0.203 -0.015,-0.047 0.074,0.196 -0.02,-0.047 0.09,0.187 -0.023,-0.043 0.105,0.176 -0.027,-0.039 0.125,0.164 -0.031,-0.039 0.136,0.152 -0.035,-0.031 0.152,0.137 -0.039,-0.032 0.164,0.122 -0.039,-0.024 0.176,0.106 -0.043,-0.024 0.188,0.09 -0.047,-0.02 0.195,0.071 -0.047,-0.016 0.203,0.055 -0.05,-0.012 0.214,0.035 -0.05,-0.008 0.215,0.012 h -0.024 36.867 -0.023 l 0.215,-0.012 -0.051,0.008 0.211,-0.035 -0.047,0.012 0.203,-0.055 -0.047,0.016 0.196,-0.071 -0.047,0.02 0.187,-0.09 -0.043,0.024 0.176,-0.106 -0.039,0.024 0.16,-0.122 -0.035,0.032 0.152,-0.137 -0.035,0.031 0.137,-0.152 -0.031,0.039 0.125,-0.164 -0.028,0.039 0.106,-0.176 -0.024,0.043 0.09,-0.187 -0.019,0.047 0.07,-0.196 -0.012,0.047 0.051,-0.203 -0.008,0.047 0.031,-0.211 -0.004,0.051 0.008,-0.219 v 0.027 -8.523 0.023 l -0.008,-0.215 0.004,0.047 -0.031,-0.211 0.008,0.051 -0.051,-0.203 0.012,0.047 -0.07,-0.195 0.019,0.043 -0.09,-0.188 0.024,0.043 -0.106,-0.176 0.028,0.043 -0.125,-0.164 0.031,0.035 -0.137,-0.152 0.035,0.035 -0.152,-0.137 0.035,0.032 -0.16,-0.125 0.039,0.027 -0.176,-0.105 0.043,0.023 -0.187,-0.09 0.047,0.02 -0.196,-0.075 0.047,0.016 -0.203,-0.051 0.047,0.008 -0.211,-0.031 0.051,0.004 -0.215,-0.012 0.023,0.004 H 50.164 l 0.024,-0.004 -0.215,0.012 0.05,-0.004 -0.214,0.031 0.05,-0.008 -0.203,0.051 0.047,-0.016 -0.195,0.075 0.047,-0.02 -0.188,0.09 0.043,-0.023 -0.176,0.105 0.039,-0.027 -0.164,0.125 0.039,-0.032 -0.152,0.137 0.035,-0.035 -0.136,0.152 0.031,-0.035 -0.125,0.164 0.027,-0.043 -0.105,0.176 0.023,-0.043 -0.09,0.188 0.02,-0.043 -0.074,0.195 0.015,-0.047 -0.051,0.203 0.008,-0.051 -0.031,0.211 0.004,-0.047 -0.012,0.215"
         style="fill:#6f2f9f;fill-opacity:1;fill-rule:nonzero;stroke:none"
         transform="scale(1.3333333)"
         clip-path="url(#clipPath43)"
         id="path44" />
    </g>
    <g
       id="g45">
      <text
         xml:space="preserve"
         transform="matrix(1.3333333,0,0,1.3363936,81.687724,258.00776)"
         clip-path="url(#clipPath45)"
         id="text45"><tspan
           style="font-variant:normal;font-weight:normal;font-size:8.05378px;font-family:Arial;writing-mode:lr-tb;fill:#000000;fill-opacity:1;fill-rule:nonzero;stroke:none"
           x="0"
           dx="0 0 -0.04026892"
           y="0"
           id="tspan45">Sort</tspan></text>
    </g>
    <g
       id="g47">
      <path
         d="m 97.125,203.723 c -0.016,-1.211 0.941,-2.168 2.16,-2.168 h 142.988 c 1.153,0 2.106,0.957 2.161,2.168 v 8.543 c -0.055,1.168 -1.008,2.125 -2.161,2.164 H 99.285 c -1.219,-0.039 -2.176,-0.996 -2.16,-2.164 v -8.543"
         style="fill:#6f2f9f;fill-opacity:1;fill-rule:evenodd;stroke:none"
         transform="scale(1.3333333)"
         clip-path="url(#clipPath46)"
         id="path47" />
    </g>
    <g
       id="g48">
      <text
         xml:space="preserve"
         transform="matrix(1.3333333,0,0,1.3363936,145.52172,281.14225)"
         clip-path="url(#clipPath48)"
         id="text48"><tspan
           style="font-variant:normal;font-weight:normal;font-size:8.05378px;font-family:Arial;writing-mode:lr-tb;fill:#ffffff;fill-opacity:1;fill-rule:nonzero;stroke:none"
           x="0"
           dx="0 0 -0.04026892 0 0 0 0 0 0 0 0 0 0 0 0 0 0 0 0 0 0 0 0 0 -0.0483227"
           y="0"
           id="tspan48">Extract CDS and protein sequence</tspan></text>
    </g>
    <g
       id="g50">
      <path
         d="m 47.602,203.418 0.039,-0.262 0.062,-0.25 0.09,-0.246 0.113,-0.23 0.129,-0.215 0.153,-0.203 0.167,-0.188 0.188,-0.168 0.203,-0.152 0.215,-0.133 0.23,-0.109 0.243,-0.09 0.25,-0.063 0.261,-0.043 0.254,-0.011 h 36.895 l 0.254,0.011 0.261,0.043 0.25,0.063 0.243,0.09 0.23,0.109 0.219,0.133 0.199,0.152 0.188,0.168 0.171,0.188 0.149,0.203 0.133,0.215 0.109,0.23 0.09,0.246 0.062,0.25 0.043,0.262 0.012,0.258 v 8.547 l -0.012,0.257 -0.043,0.258 -0.062,0.254 -0.09,0.242 -0.109,0.231 -0.133,0.219 -0.149,0.203 -0.171,0.187 -0.188,0.168 -0.199,0.153 -0.219,0.128 -0.23,0.114 -0.243,0.09 -0.25,0.062 -0.261,0.039 -0.254,0.016 H 50.199 l -0.254,-0.016 -0.261,-0.039 -0.25,-0.062 -0.243,-0.09 -0.23,-0.114 -0.215,-0.128 -0.203,-0.153 -0.188,-0.168 -0.167,-0.187 -0.153,-0.203 -0.129,-0.219 -0.113,-0.231 -0.09,-0.242 -0.062,-0.254 -0.039,-0.258 -0.016,-0.257 v -8.547 z m 0.984,0.293 v -0.023 8.523 -0.027 l 0.012,0.218 -0.004,-0.05 0.031,0.21 -0.012,-0.046 0.055,0.203 -0.016,-0.047 0.075,0.195 -0.024,-0.047 0.094,0.188 -0.024,-0.043 0.106,0.176 -0.027,-0.039 0.121,0.164 -0.032,-0.039 0.137,0.152 -0.031,-0.031 0.152,0.136 -0.039,-0.031 0.164,0.125 -0.039,-0.027 0.176,0.105 -0.043,-0.023 0.184,0.09 -0.043,-0.02 0.195,0.07 -0.047,-0.015 0.203,0.054 -0.051,-0.007 0.211,0.031 -0.047,-0.008 0.215,0.012 h -0.023 36.867 -0.027 l 0.218,-0.012 -0.05,0.008 0.211,-0.031 -0.047,0.007 0.203,-0.054 -0.047,0.015 0.191,-0.07 -0.043,0.02 0.188,-0.09 -0.043,0.023 0.176,-0.105 -0.043,0.027 0.164,-0.125 -0.035,0.031 0.148,-0.136 -0.031,0.031 0.137,-0.152 -0.032,0.039 0.125,-0.164 -0.027,0.039 0.105,-0.176 -0.023,0.043 0.09,-0.188 -0.02,0.047 0.071,-0.195 -0.016,0.047 0.055,-0.203 -0.012,0.046 0.035,-0.21 -0.008,0.05 0.012,-0.218 v 0.027 -8.523 0.023 l -0.012,-0.215 0.008,0.047 -0.035,-0.211 0.012,0.051 -0.055,-0.203 0.016,0.047 -0.071,-0.196 0.02,0.043 -0.09,-0.183 0.023,0.043 -0.105,-0.18 0.027,0.043 -0.125,-0.164 0.032,0.035 -0.137,-0.148 0.031,0.031 -0.148,-0.137 0.035,0.031 -0.164,-0.125 0.043,0.028 -0.176,-0.106 0.043,0.024 -0.188,-0.09 0.043,0.019 -0.191,-0.074 0.047,0.016 -0.203,-0.051 0.047,0.008 -0.211,-0.032 0.05,0.004 -0.218,-0.011 0.027,0.004 H 50.215 l 0.023,-0.004 -0.215,0.011 0.047,-0.004 -0.211,0.032 0.051,-0.008 -0.203,0.051 0.047,-0.016 -0.195,0.074 0.043,-0.019 -0.184,0.09 0.043,-0.024 -0.176,0.106 0.039,-0.028 -0.164,0.125 0.039,-0.031 -0.152,0.137 0.031,-0.031 -0.137,0.148 0.032,-0.035 -0.121,0.164 0.027,-0.043 -0.106,0.18 0.024,-0.043 -0.094,0.183 0.024,-0.043 -0.075,0.196 0.016,-0.047 -0.055,0.203 0.012,-0.051 -0.031,0.211 0.004,-0.047 -0.012,0.215"
         style="fill:#6f2f9f;fill-opacity:1;fill-rule:nonzero;stroke:none"
         transform="scale(1.3333333)"
         clip-path="url(#clipPath49)"
         id="path50" />
    </g>
    <g
       id="g51">
      <text
         xml:space="preserve"
         transform="matrix(1.3333333,0,0,1.3363936,74.951228,281.13824)"
         clip-path="url(#clipPath51)"
         id="text51"><tspan
           style="font-variant:normal;font-weight:normal;font-size:8.05378px;font-family:Arial;writing-mode:lr-tb;fill:#000000;fill-opacity:1;fill-rule:nonzero;stroke:none"
           x="0"
           dx="0 0 -0.04026892"
           y="0"
           id="tspan51">Extract</tspan></text>
    </g>
    <g
       id="g53">
      <path
         d="m 34.336,245.117 c 0.047,-4.992 4.059,-9.015 9.004,-9.027 h 202.656 c 4.977,0.012 8.988,4.035 9.004,9.027 v 35.86 c -0.016,5 -4.027,9.023 -9.004,9.023 H 43.34 c -4.945,0 -8.957,-4.023 -9.004,-9.023 v -35.86"
         style="fill:#d8ceb2;fill-opacity:1;fill-rule:evenodd;stroke:none"
         transform="scale(1.3333333)"
         clip-path="url(#clipPath52)"
         id="path53" />
    </g>
    <g
       id="g55">
      <path
         d="m 102.648,266.777 c -0.035,-1.757 1.407,-3.199 3.243,-3.25 h 135.062 c 1.836,0.051 3.277,1.493 3.242,3.25 v 12.875 c 0.035,1.836 -1.406,3.278 -3.242,3.25 H 105.891 c -1.836,0.028 -3.278,-1.414 -3.243,-3.25 v -12.875"
         style="fill:#7f6000;fill-opacity:1;fill-rule:evenodd;stroke:none"
         transform="scale(1.3333333)"
         clip-path="url(#clipPath54)"
         id="path55" />
    </g>
    <g
       id="g56">
      <text
         xml:space="preserve"
         transform="matrix(1.3333333,0,0,1.3363936,161.21843,361.78739)"
         clip-path="url(#clipPath56)"
         id="text56"><tspan
           style="font-variant:normal;font-weight:normal;font-size:8.05378px;font-family:Arial;writing-mode:lr-tb;fill:#ffffff;fill-opacity:1;fill-rule:nonzero;stroke:none"
           x="0"
           dx="0 0 0 0 0 0 0 0 0 0 0 0 0 0 0 0 0 0 0 0 -0.056376491"
           y="0"
           id="tspan56">Converting between GTF and </tspan></text>
    </g>
    <g
       id="g57">
      <text
         xml:space="preserve"
         transform="matrix(1.3333333,0,0,1.3363936,198.36922,374.6228)"
         clip-path="url(#clipPath57)"
         id="text57"><tspan
           style="font-variant:normal;font-weight:normal;font-size:8.05378px;font-family:Arial;writing-mode:lr-tb;fill:#ffffff;fill-opacity:1;fill-rule:nonzero;stroke:none"
           x="0"
           dx="0 -0.056376491 0 0 -0.0483227 0 0 0 0 -0.056376491"
           y="0"
           id="tspan57">GFF3 formats</tspan></text>
    </g>
    <g
       id="g59">
      <path
         d="m 102.406,247.402 c 0.059,-1.222 1.008,-2.175 2.164,-2.164 h 137.825 c 1.132,-0.011 2.085,0.942 2.039,2.164 v 8.422 c 0.046,1.235 -0.907,2.188 -2.039,2.168 H 104.57 c -1.156,0.02 -2.105,-0.933 -2.164,-2.168 v -8.422"
         style="fill:#7f6000;fill-opacity:1;fill-rule:evenodd;stroke:none"
         transform="scale(1.3333333)"
         clip-path="url(#clipPath58)"
         id="path59" />
    </g>
    <g
       id="g60">
      <text
         xml:space="preserve"
         transform="matrix(1.3333333,0,0,1.3363936,183.26879,339.36553)"
         clip-path="url(#clipPath60)"
         id="text60"><tspan
           style="font-variant:normal;font-weight:normal;font-size:8.05378px;font-family:Arial;writing-mode:lr-tb;fill:#ffffff;fill-opacity:1;fill-rule:nonzero;stroke:none"
           x="0"
           dx="0 0 0 -0.056376491 0 0 0 0 0 -0.056376491"
           y="0"
           id="tspan60">Compare GFF3 files</tspan></text>
    </g>
    <g
       id="g62">
      <path
         d="m 47.656,266.422 0.055,-0.371 0.094,-0.356 0.125,-0.343 0.156,-0.325 0.187,-0.308 0.211,-0.289 0.243,-0.262 0.261,-0.242 0.289,-0.215 0.305,-0.188 0.328,-0.156 0.34,-0.125 0.355,-0.09 0.372,-0.058 0.367,-0.02 h 43.062 l 0.367,0.02 0.368,0.058 0.355,0.09 0.344,0.125 0.324,0.156 0.309,0.188 0.285,0.215 0.265,0.242 0.239,0.262 0.215,0.289 0.187,0.308 0.156,0.325 0.125,0.343 0.09,0.356 0.059,0.371 0.015,0.367 v 12.93 l -0.015,0.367 -0.059,0.371 -0.09,0.355 -0.125,0.344 -0.156,0.324 -0.187,0.309 -0.215,0.285 -0.239,0.266 -0.265,0.242 -0.285,0.215 -0.309,0.187 -0.324,0.157 -0.344,0.125 -0.355,0.089 -0.368,0.059 -0.367,0.02 H 51.344 l -0.367,-0.02 -0.372,-0.059 -0.355,-0.089 -0.34,-0.125 -0.328,-0.157 -0.305,-0.187 -0.289,-0.215 -0.261,-0.242 -0.243,-0.266 -0.211,-0.285 -0.187,-0.309 -0.156,-0.324 -0.125,-0.344 -0.094,-0.355 -0.055,-0.371 -0.019,-0.367 v -12.93 z m 0.981,0.406 v -0.023 12.898 -0.023 l 0.015,0.328 -0.004,-0.047 0.051,0.316 -0.011,-0.047 0.078,0.309 -0.016,-0.047 0.109,0.297 -0.019,-0.047 0.137,0.281 -0.024,-0.043 0.16,0.266 -0.023,-0.039 0.183,0.25 -0.031,-0.039 0.207,0.23 -0.031,-0.035 0.227,0.211 -0.036,-0.031 0.246,0.184 -0.039,-0.028 0.266,0.164 -0.043,-0.023 0.281,0.137 -0.043,-0.02 0.293,0.109 -0.047,-0.015 0.309,0.078 -0.051,-0.012 0.321,0.051 -0.051,-0.004 0.332,0.016 h -0.028 43.036 -0.024 l 0.328,-0.016 -0.05,0.004 0.32,-0.051 -0.047,0.012 0.309,-0.078 -0.051,0.015 0.297,-0.109 -0.043,0.02 0.281,-0.137 -0.043,0.023 0.266,-0.164 -0.043,0.028 0.25,-0.184 -0.039,0.031 0.23,-0.211 -0.035,0.035 0.207,-0.23 -0.027,0.039 0.183,-0.25 -0.027,0.039 0.16,-0.266 -0.023,0.043 0.136,-0.281 -0.019,0.047 0.109,-0.297 -0.016,0.047 0.082,-0.309 -0.011,0.047 0.051,-0.316 -0.008,0.047 0.019,-0.328 -0.004,0.023 v -12.898 l 0.004,0.023 -0.019,-0.328 0.008,0.047 -0.051,-0.32 0.011,0.05 -0.082,-0.308 0.016,0.047 -0.109,-0.297 0.019,0.047 -0.136,-0.286 0.023,0.047 -0.16,-0.269 0.027,0.043 -0.183,-0.25 0.027,0.039 -0.207,-0.231 0.035,0.036 -0.23,-0.211 0.039,0.031 -0.25,-0.184 0.043,0.028 -0.266,-0.164 0.043,0.023 -0.281,-0.137 0.043,0.02 -0.297,-0.11 0.051,0.016 -0.309,-0.078 0.047,0.008 -0.32,-0.047 0.05,0.004 -0.328,-0.016 h 0.024 -43.036 0.028 l -0.332,0.016 0.051,-0.004 -0.321,0.047 0.051,-0.008 -0.309,0.078 0.047,-0.016 -0.293,0.11 0.043,-0.02 -0.281,0.137 0.043,-0.023 -0.266,0.164 0.039,-0.028 -0.246,0.184 0.036,-0.031 -0.227,0.211 0.031,-0.036 -0.207,0.231 0.031,-0.039 -0.183,0.25 0.023,-0.043 -0.16,0.269 0.024,-0.047 -0.137,0.286 0.019,-0.047 -0.109,0.297 0.016,-0.047 -0.078,0.308 0.011,-0.05 -0.051,0.32 0.004,-0.047 -0.015,0.328"
         style="fill:#7f6000;fill-opacity:1;fill-rule:nonzero;stroke:none"
         transform="scale(1.3333333)"
         clip-path="url(#clipPath61)"
         id="path62" />
    </g>
    <g
       id="g63">
      <text
         xml:space="preserve"
         transform="matrix(1.3333333,0,0,1.3363936,78.4462,368.13825)"
         clip-path="url(#clipPath63)"
         id="text63"><tspan
           style="font-variant:normal;font-weight:normal;font-size:8.05378px;font-family:Arial;writing-mode:lr-tb;fill:#000000;fill-opacity:1;fill-rule:nonzero;stroke:none"
           x="0"
           y="0"
           id="tspan63">Convert</tspan></text>
    </g>
    <g
       id="g65">
      <path
         d="m 47.648,247.188 0.043,-0.258 0.063,-0.254 0.09,-0.242 0.109,-0.231 0.133,-0.219 0.152,-0.203 0.168,-0.187 0.188,-0.168 0.203,-0.153 0.215,-0.128 0.23,-0.114 0.242,-0.09 0.25,-0.062 0.262,-0.039 0.254,-0.016 h 45.297 l 0.258,0.016 0.257,0.039 0.254,0.062 0.243,0.09 0.23,0.114 0.215,0.128 0.203,0.153 0.188,0.168 0.167,0.187 0.153,0.203 0.129,0.219 0.109,0.231 0.09,0.242 0.066,0.254 0.039,0.258 0.012,0.257 v 8.551 l -0.012,0.254 -0.039,0.262 -0.066,0.25 -0.09,0.246 -0.109,0.23 -0.129,0.215 -0.153,0.203 -0.167,0.188 -0.188,0.168 -0.203,0.152 -0.215,0.133 -0.23,0.109 -0.243,0.09 -0.254,0.063 -0.257,0.043 -0.258,0.011 H 50.25 l -0.254,-0.011 -0.262,-0.043 -0.25,-0.063 -0.242,-0.09 -0.23,-0.109 -0.215,-0.133 -0.203,-0.152 -0.188,-0.168 -0.168,-0.188 -0.152,-0.203 -0.133,-0.215 -0.109,-0.23 -0.09,-0.246 -0.063,-0.25 -0.043,-0.262 -0.011,-0.254 v -8.551 z m 0.989,0.296 v -0.027 8.523 -0.023 l 0.011,0.215 -0.003,-0.047 0.031,0.211 -0.012,-0.051 0.055,0.203 -0.016,-0.047 0.07,0.196 -0.015,-0.043 0.086,0.187 -0.024,-0.047 0.11,0.176 -0.028,-0.039 0.121,0.164 -0.031,-0.035 0.137,0.148 -0.031,-0.031 0.152,0.137 -0.039,-0.031 0.164,0.125 -0.039,-0.028 0.176,0.106 -0.043,-0.024 0.183,0.09 -0.043,-0.019 0.196,0.074 -0.047,-0.016 0.203,0.051 -0.051,-0.008 0.211,0.031 -0.051,-0.003 0.219,0.011 -0.027,-0.004 h 45.273 l -0.023,0.004 0.215,-0.011 -0.051,0.003 0.211,-0.031 -0.047,0.008 0.203,-0.051 -0.047,0.016 0.195,-0.074 -0.046,0.019 0.187,-0.09 -0.043,0.024 0.176,-0.106 -0.039,0.028 0.16,-0.125 -0.035,0.031 0.152,-0.137 -0.035,0.031 0.137,-0.148 -0.032,0.035 0.125,-0.164 -0.027,0.039 0.106,-0.176 -0.024,0.047 0.09,-0.187 -0.02,0.043 0.071,-0.196 -0.012,0.047 0.051,-0.203 -0.008,0.051 0.031,-0.211 -0.004,0.047 0.008,-0.215 v 0.023 -8.523 0.027 l -0.008,-0.218 0.004,0.05 -0.031,-0.211 0.008,0.047 -0.051,-0.203 0.012,0.047 -0.071,-0.195 0.02,0.047 -0.09,-0.188 0.024,0.043 -0.106,-0.176 0.027,0.039 -0.125,-0.164 0.032,0.039 -0.137,-0.152 0.035,0.031 -0.152,-0.136 0.035,0.031 -0.16,-0.121 0.039,0.023 -0.176,-0.105 0.043,0.023 -0.187,-0.09 0.046,0.02 -0.195,-0.07 0.047,0.015 -0.203,-0.055 0.047,0.012 -0.211,-0.035 0.051,0.008 -0.215,-0.012 h 0.023 -45.273 0.027 l -0.219,0.012 0.051,-0.008 -0.211,0.035 0.051,-0.012 -0.203,0.055 0.047,-0.015 -0.196,0.07 0.043,-0.02 -0.183,0.09 0.043,-0.023 -0.176,0.105 0.039,-0.023 -0.164,0.121 0.039,-0.031 -0.152,0.136 0.031,-0.031 -0.137,0.152 0.031,-0.039 -0.121,0.164 0.028,-0.039 -0.11,0.176 0.024,-0.043 -0.086,0.188 0.015,-0.047 -0.07,0.195 0.016,-0.047 -0.055,0.203 0.012,-0.047 -0.031,0.211 0.003,-0.05 -0.011,0.218"
         style="fill:#7f6000;fill-opacity:1;fill-rule:nonzero;stroke:none"
         transform="scale(1.3333333)"
         clip-path="url(#clipPath64)"
         id="path65" />
    </g>
    <g
       id="g66">
      <text
         xml:space="preserve"
         transform="matrix(1.3333333,0,0,1.3363936,75.218024,339.49924)"
         clip-path="url(#clipPath66)"
         id="text66"><tspan
           style="font-variant:normal;font-weight:normal;font-size:8.05378px;font-family:Arial;writing-mode:lr-tb;fill:#000000;fill-opacity:1;fill-rule:nonzero;stroke:none"
           x="0"
           dx="0 0 0 -0.056376491"
           y="0"
           id="tspan66">Compare</tspan></text>
    </g>
    <g
       id="g68">
      <path
         d="M 0,4.211 C 0.016,1.871 1.883,0 4.203,0 h 16.688 c 2.269,0 4.136,1.871 4.082,4.211 v 37.664 c 0.054,2.281 -1.813,4.152 -4.082,4.211 H 4.203 C 1.883,46.027 0.016,44.156 0,41.875 V 4.211"
         style="fill:#b2d3eb;fill-opacity:1;fill-rule:evenodd;stroke:none"
         transform="scale(1.3333333)"
         clip-path="url(#clipPath67)"
         id="path68" />
    </g>
    <g
       id="g69">
      <text
         xml:space="preserve"
         transform="matrix(0,-1.3333333,1.3302801,0,20.522984,42.00922)"
         clip-path="url(#clipPath69)"
         id="text69"><tspan
           style="font-variant:normal;font-weight:normal;font-size:8.07227px;font-family:Arial;writing-mode:lr-tb;fill:#000000;fill-opacity:1;fill-rule:nonzero;stroke:none"
           x="0"
           y="0"
           id="tspan69">Data</tspan></text>
    </g>
    <g
       id="g71">
      <path
         d="M 0,61.609 C 0.016,59.328 1.883,57.457 4.203,57.52 h 16.688 c 2.269,-0.063 4.136,1.808 4.082,4.089 v 78.579 c 0.054,2.289 -1.813,4.16 -4.082,4.21 H 4.203 C 1.883,144.348 0.016,142.477 0,140.188 V 61.609"
         style="fill:#b2e7ca;fill-opacity:1;fill-rule:evenodd;stroke:none"
         transform="scale(1.3333333)"
         clip-path="url(#clipPath70)"
         id="path71" />
    </g>
    <g
       id="g72">
      <text
         xml:space="preserve"
         transform="matrix(0,-1.3333333,1.3302801,0,20.522984,172.302)"
         clip-path="url(#clipPath72)"
         id="text72"><tspan
           style="font-variant:normal;font-weight:normal;font-size:8.07227px;font-family:Arial;writing-mode:lr-tb;fill:#000000;fill-opacity:1;fill-rule:nonzero;stroke:none"
           x="0"
           dx="0 -0.056505881"
           y="0"
           id="tspan72">Gene prediction</tspan></text>
    </g>
    <g
       id="g74">
      <path
         d="m 0,160.043 c 0.016,-2.344 1.883,-4.215 4.203,-4.215 h 16.688 c 2.269,0 4.136,1.871 4.082,4.215 v 60.645 c 0.054,2.312 -1.813,4.183 -4.082,4.214 H 4.203 C 1.883,224.871 0.016,223 0,220.688 v -60.645"
         style="fill:#d3c0e2;fill-opacity:1;fill-rule:evenodd;stroke:none"
         transform="scale(1.3333333)"
         clip-path="url(#clipPath73)"
         id="path74" />
    </g>
    <g
       id="g75">
      <text
         xml:space="preserve"
         transform="matrix(0,-1.3333333,1.3302801,0,14.119975,274.58416)"
         clip-path="url(#clipPath75)"
         id="text75"><tspan
           style="font-variant:normal;font-weight:normal;font-size:8.07227px;font-family:Arial;writing-mode:lr-tb;fill:#000000;fill-opacity:1;fill-rule:nonzero;stroke:none"
           x="0"
           y="0"
           id="tspan75">Filter out </tspan></text>
    </g>
    <g
       id="g76">
      <text
         xml:space="preserve"
         transform="matrix(0,-1.3333333,1.3302801,0,26.925992,281.73722)"
         clip-path="url(#clipPath76)"
         id="text76"><tspan
           style="font-variant:normal;font-weight:normal;font-size:8.07227px;font-family:Arial;writing-mode:lr-tb;fill:#000000;fill-opacity:1;fill-rule:nonzero;stroke:none"
           x="0"
           y="0"
           id="tspan76">redundancy</tspan></text>
    </g>
    <g
       id="g78">
      <path
         d="m 0,240.543 c 0.016,-2.32 1.883,-4.191 4.203,-4.211 h 16.688 c 2.269,0.02 4.136,1.891 4.082,4.211 v 45.246 C 25.027,288.129 23.16,290 20.891,290 H 4.203 C 1.883,290 0.016,288.129 0,285.789 v -45.246"
         style="fill:#d8ceb2;fill-opacity:1;fill-rule:evenodd;stroke:none"
         transform="scale(1.3333333)"
         clip-path="url(#clipPath77)"
         id="path78" />
    </g>
    <g
       id="g79">
      <text
         xml:space="preserve"
         transform="matrix(0,-1.3333333,1.3302801,0,20.522984,370.84973)"
         clip-path="url(#clipPath79)"
         id="text79"><tspan
           style="font-variant:normal;font-weight:normal;font-size:8.07227px;font-family:Arial;writing-mode:lr-tb;fill:#000000;fill-opacity:1;fill-rule:nonzero;stroke:none"
           x="0"
           dx="0 -0.056505881"
           y="0"
           id="tspan79">Optional</tspan></text>
    </g>
    <g
       id="g81">
      <path
         d="m 9.453,50.195 3.5,6.016 H 12.09 l 3.5,-6.016 0.098,-0.121 0.132,-0.086 0.153,-0.039 0.156,0.008 0.144,0.059 0.122,0.097 0.085,0.133 0.04,0.152 -0.008,0.157 -0.059,0.144 -3.933,6.758 -3.934,-6.758 -0.055,-0.144 -0.008,-0.157 0.039,-0.152 0.083,-0.133 0.121,-0.097 0.148,-0.059 0.156,-0.008 0.149,0.039 0.133,0.086 z m 3.567,-4.168 v 10.438 h -1 V 46.027 h 1"
         style="fill:#202020;fill-opacity:1;fill-rule:nonzero;stroke:none"
         transform="scale(1.3333333)"
         clip-path="url(#clipPath80)"
         id="path81" />
    </g>
    <g
       id="g83">
      <path
         d="m 9.453,148.566 3.5,6.016 H 12.09 l 3.5,-6.016 0.098,-0.121 0.132,-0.086 0.153,-0.039 0.156,0.008 0.144,0.059 0.122,0.097 0.085,0.133 0.04,0.153 -0.008,0.156 -0.059,0.144 -3.933,6.758 -3.934,-6.758 -0.055,-0.144 -0.008,-0.156 0.039,-0.153 0.083,-0.133 0.121,-0.097 0.148,-0.059 0.156,-0.008 0.149,0.039 0.133,0.086 z m 3.567,-4.218 v 10.488 h -1 v -10.488 h 1"
         style="fill:#202020;fill-opacity:1;fill-rule:nonzero;stroke:none"
         transform="scale(1.3333333)"
         clip-path="url(#clipPath82)"
         id="path83" />
    </g>
    <g
       id="g85">
      <path
         d="m 9.453,229.09 3.5,6.015 H 12.09 l 3.5,-6.015 0.098,-0.125 0.132,-0.082 0.153,-0.043 0.156,0.012 0.144,0.054 0.122,0.102 0.085,0.129 0.04,0.152 -0.008,0.156 -0.059,0.149 -3.933,6.758 -3.934,-6.758 -0.055,-0.149 -0.008,-0.156 0.039,-0.152 0.083,-0.129 0.121,-0.102 0.148,-0.054 0.156,-0.012 0.149,0.043 0.133,0.082 z m 3.567,-4.219 v 10.484 h -1 v -10.484 h 1"
         style="fill:#202020;fill-opacity:1;fill-rule:nonzero;stroke:none"
         transform="scale(1.3333333)"
         clip-path="url(#clipPath84)"
         id="path85" />
    </g>
    <g
       id="g87">
      <path
         d="m 127.141,106.977 c -0.016,-1.133 0.937,-2.086 2.16,-2.047 h 112.851 c 1.125,-0.039 2.078,0.914 2.043,2.047 v 8.543 c 0.035,1.203 -0.918,2.156 -2.043,2.164 H 129.301 c -1.223,-0.008 -2.176,-0.961 -2.16,-2.164 v -8.543"
         style="fill:#00b050;fill-opacity:1;fill-rule:evenodd;stroke:none"
         transform="scale(1.3333333)"
         clip-path="url(#clipPath86)"
         id="path87" />
    </g>
    <g
       id="g88">
      <text
         xml:space="preserve"
         transform="matrix(1.3333333,0,0,1.3363936,180.53417,151.78139)"
         clip-path="url(#clipPath88)"
         id="text88"><tspan
           style="font-variant:normal;font-weight:normal;font-size:6.95327px;font-family:Arial;writing-mode:lr-tb;fill:#ffffff;fill-opacity:1;fill-rule:nonzero;stroke:none"
           x="0"
           dx="0 0.034766339 0 0 0 0.041719601 0 0.041719601 0 0 0 0 0 0 0 0 0.034766339 0 0 0.034766339 0 0 0 0 0 0.034766339"
           y="0"
           id="tspan88">Calculate CDS phase and repair</tspan></text>
    </g>
    <g
       id="g90">
      <path
         d="m 127.379,125.266 c -0.004,-1.121 0.949,-2.075 2.16,-2.047 h 112.856 c 1.132,-0.028 2.085,0.926 2.039,2.047 v 8.543 c 0.046,1.211 -0.907,2.168 -2.039,2.168 H 129.539 c -1.211,0 -2.164,-0.957 -2.16,-2.168 v -8.543"
         style="fill:#00b050;fill-opacity:1;fill-rule:evenodd;stroke:none"
         transform="scale(1.3333333)"
         clip-path="url(#clipPath89)"
         id="path90" />
    </g>
    <g
       id="g91">
      <text
         xml:space="preserve"
         transform="matrix(1.3333333,0,0,1.3363936,181.06776,176.18203)"
         clip-path="url(#clipPath91)"
         id="text91"><tspan
           style="font-variant:normal;font-weight:normal;font-size:6.95327px;font-family:Arial;writing-mode:lr-tb;fill:#ffffff;fill-opacity:1;fill-rule:nonzero;stroke:none"
           x="0"
           dx="0 0.034766339 0 0 0 0 0 0.041719601 0 0 0 0 0 0 0 0 0.041719601 0.034766339 0.034766339 0 0 0.04867287 0.055626139 0.062579401 0 0 0 0 0 0.034766339"
           y="0"
           id="tspan91">Regenerate standard GFF3 files</tspan></text>
    </g>
  </g>
</svg>
